# xmcd CD database file
#
# Track frame offsets:
#	150
#	12518
#	27720
#	44335
#	57055
#	71475
#	85753
#	100190
#	112578
#	126475
#	143900
#	160200
#
# Disc length: 2331 seconds
#
# Revision: 0
# Processed by: cddbd v1.5.2PL0 Copyright (c) Steve Scherf et al.
# Submitted via: CDex 1.51
#
DISCID=9e09190c
DTITLE=Henry Mancini - THE BLUES AND THE BEAT
DYEAR=1960
DGENRE=Blues
TTITLE0=ザ・ブルース
TTITLE1=スモーク・リングス
TTITLE2=ミスティー
TTITLE3=ブルー・フレーム
TTITLE4=アフター・アワーズ
TTITLE5=ムード・インディゴ
TTITLE6=ザ・ビート
TTITLE7=ビック・ノイズ・フロム・ウィネトカ
TTITLE8=オーライト・オーケイ、ユー・イィン
TTITLE9=ティッピン・イン
TTITLE10=つれない仕打ち
TTITLE11=シング・シング・シング
EXTD=YEAR: 1960
EXTT0=
EXTT1=
EXTT2=
EXTT3=
EXTT4=
EXTT5=
EXTT6=
EXTT7=
EXTT8=
EXTT9=
EXTT10=
EXTT11=
PLAYORDER=
